<svg fill="#000000" xmlns="http://www.w3.org/2000/svg"  viewBox="0 0 50 50" width="500px" height="500px"><path fill="none" stroke="#000000" stroke-linejoin="round" stroke-width="2" d="M14,5c-4.971,0-9,4.029-9,9v22	c0,4.971,4.029,9,9,9h22c4.971,0,9-4.029,9-9V14c0-4.971-4.029-9-9-9H14z"/><path fill="none" stroke="#000000" stroke-linejoin="round" stroke-width="2" d="M39,18h-4.868c-0.703,0-1.354-0.369-1.715-0.971	l-1.835-3.058C30.221,13.369,29.57,13,28.868,13h-7.735c-0.703,0-1.354,0.369-1.715,0.971l-1.835,3.058	C17.221,17.631,16.57,18,15.868,18H11c-0.552,0-1,0.448-1,1v16c0,0.552,0.448,1,1,1h28c0.552,0,1-0.448,1-1V19	C40,18.448,39.552,18,39,18z"/><circle cx="25" cy="27" r="6" fill="none" stroke="#000000" stroke-linejoin="round" stroke-width="2"/><path d="M15,16h-4v-1c0-0.552,0.448-1,1-1h2c0.552,0,1,0.448,1,1V16z"/><circle cx="34" cy="21" r="1"/></svg>